<mxfile host="app.diagrams.net" modified="2024-01-12T08:58:55.680Z" agent="Mozilla/5.0 (Macintosh; Intel Mac OS X 10_15_7) AppleWebKit/537.36 (KHTML, like Gecko) Chrome/120.0.0.0 Safari/537.36" version="22.1.18" etag="rK6PUIR8Ifcv6qnznIDs" type="github">
  <diagram name="Page-1" id="z7VNg-_Fi_UPd4djC9sa">
    <mxGraphModel>
      <root>
        <mxCell id="0" />
        <mxCell id="1" parent="0" />
      </root>
    </mxGraphModel>
  </diagram>
</mxfile>
